<?xml version='1.0' encoding='UTF-8' standalone='no'?>
<svg version="1.2" width="296.926mm" xmlns="http://www.w3.org/2000/svg" baseProfile="tiny" height="209.973mm" viewBox="0 0 3507 2480" xmlns:cc="http://creativecommons.org/ns#" xmlns:xlink="http://www.w3.org/1999/xlink">
 <defs/>
 <g fill-rule="evenodd" stroke-linejoin="bevel" stroke-width="1" fill="none" stroke="black" stroke-linecap="square">
  <g font-weight="400" font-family="MS Shell Dlg 2" stroke-opacity="1" stroke-linejoin="bevel" stroke-width="1" transform="matrix(1,0,0,1,0,0)" font-style="normal" font-size="33.3333" fill="none" stroke="#000000" stroke-linecap="square"/>
  <g font-weight="400" font-family="MS Shell Dlg 2" stroke-opacity="1" stroke-linejoin="bevel" stroke-width="1" transform="matrix(1,0,0,1,0,0)" font-style="normal" font-size="33.3333" fill="none" stroke="#000000" stroke-linecap="square"/>
  <g font-weight="400" font-family="MS Shell Dlg 2" stroke-opacity="1" stroke-linejoin="bevel" stroke-width="1" transform="matrix(11.8081,0,0,11.8081,0,0)" font-style="normal" font-size="33.3333" fill="none" stroke="#000000" stroke-linecap="square"/>
  <g font-weight="400" font-family="MS Shell Dlg 2" stroke-opacity="1" stroke-linejoin="bevel" stroke-width="1" transform="matrix(0.999751,0,0,0.999751,0,0)" font-style="normal" font-size="33.3333" fill="none" stroke="#000000" stroke-linecap="square"/>
  <g font-weight="400" font-family="MS Shell Dlg 2" transform="matrix(0.999751,0,0,0.999751,0,0)" font-style="normal" font-size="33.3333" fill-opacity="1" fill="#ffffff" stroke="none">
   <path fill-rule="evenodd" vector-effect="none" d="M-2,-2 L3510,-2 L3510,2483 L-2,2483 L-2,-2"/>
  </g>
  <g font-weight="400" font-family="MS Shell Dlg 2" stroke-opacity="1" stroke-linejoin="bevel" stroke-width="1" transform="matrix(0.999751,0,0,0.999751,0,0)" font-style="normal" font-size="33.3333" fill="none" stroke="#000000" stroke-linecap="square"/>
  <g font-weight="400" font-family="MS Shell Dlg 2" stroke-opacity="1" stroke-linejoin="bevel" stroke-width="1" transform="matrix(11.8081,0,0,11.8081,0,0)" font-style="normal" font-size="33.3333" fill="none" stroke="#000000" stroke-linecap="square"/>
  <g font-weight="400" font-family="MS Shell Dlg 2" stroke-opacity="1" stroke-linejoin="bevel" stroke-width="1" transform="matrix(11.8081,0,0,11.8081,0,0)" font-style="normal" font-size="33.3333" fill="none" stroke="#000000" stroke-linecap="square"/>
  <g font-weight="400" font-family="MS Shell Dlg 2" stroke-opacity="1" stroke-linejoin="bevel" stroke-width="1" transform="matrix(11.8081,0,0,11.8081,0,0)" font-style="normal" font-size="33.3333" fill="none" stroke="#000000" stroke-linecap="square"/>
  <g font-weight="400" font-family="MS Shell Dlg 2" stroke-opacity="1" stroke-linejoin="bevel" stroke-width="1" transform="matrix(11.8081,0,0,11.8081,0,0)" font-style="normal" font-size="33.3333" fill="none" stroke="#000000" stroke-linecap="square"/>
  <g font-weight="400" font-family="MS Shell Dlg 2" stroke-opacity="1" stroke-linejoin="bevel" stroke-width="1" transform="matrix(11.8081,0,0,11.8081,71.5949,113.709)" font-style="normal" font-size="33.3333" fill="none" stroke="#000000" stroke-linecap="square"/>
  <g font-weight="400" font-family="MS Shell Dlg 2" transform="matrix(11.8081,0,0,11.8081,71.5949,113.709)" font-style="normal" font-size="33.3333" fill-opacity="1" fill="#ffffff" stroke="none">
   <path fill-rule="evenodd" vector-effect="none" d="M0,0 L281.761,0 L281.761,191.883 L0,191.883 L0,0"/>
  </g>
  <g font-weight="400" font-family="MS Shell Dlg 2" stroke-opacity="1" stroke-linejoin="bevel" stroke-width="1" transform="matrix(11.8081,0,0,11.8081,71.5949,113.709)" font-style="normal" font-size="33.3333" fill="none" stroke="#000000" stroke-linecap="square"/>
  <g font-weight="400" font-family="MS Shell Dlg 2" stroke-opacity="1" stroke-linejoin="bevel" stroke-width="1" transform="matrix(11.8081,0,0,11.8081,71.5949,113.709)" font-style="normal" font-size="33.3333" fill="none" stroke="#000000" stroke-linecap="square"/>
  <g font-weight="400" font-family="MS Shell Dlg 2" transform="matrix(0.999751,0,0,0.999751,71.5949,113.709)" font-style="normal" font-size="33.3333" fill-opacity="0" fill="#000000" stroke="none">
   <rect width="3328" height="2266" y="0" x="0"/>
  </g>
  <g font-weight="400" font-family="MS Shell Dlg 2" stroke-opacity="1" stroke-linejoin="bevel" stroke-width="1" transform="matrix(0.999751,0,0,0.999751,71.5949,113.709)" font-style="normal" font-size="33.3333" fill="none" stroke="#000000" stroke-linecap="square"/>
  <g font-weight="400" font-family="MS Shell Dlg 2" stroke-opacity="1" stroke-linejoin="bevel" stroke-width="3.07087" transform="matrix(0.999751,0,0,0.999751,71.5949,113.709)" font-style="normal" font-size="33.3333" fill-opacity="1" fill="#7e471c" stroke="#232323" stroke-linecap="square">
   <path fill-rule="evenodd" vector-effect="none" d="M1873.76,790.608 L1884.82,797.686 L1887.47,801.645 L1891.31,808.965 L1896.19,819.781 L1901.43,829.203 L1905.62,835.484 L1914.31,844.884 L1922.25,854.152 L1926.5,854.683 L1927.09,854.97 L1933.29,859.195 L1939.8,866.869 L1940.58,871.426 L1942.58,875.96 L1945.54,879.322 L1948.78,880.892 L1954.76,881.998 L1962.38,883.48 L1969.75,888.346 L1975.9,894.959 L1980.79,898.232 L1987.27,901.616 L1988.83,909.734 L1992.45,918.514 L1997.33,927.03 L2000.95,931.431 L2009.64,940.566 L2014.86,945.1 L2023.86,950.253 L2033.4,953.593 L2044.7,956.402 L2053.33,959.189 L2054.12,959.145 L2061.49,959.72 L2065.67,960.914 L2067.16,961.224 L2076.25,963.48 L2087.69,964.475 L2095.71,966.975 L2096.34,967.196 L2103.51,970.071 L2105.35,971.243 L2112.6,975.18 L2122.57,979.361 L2128.44,980.599 L2137.49,983.01 L2143.87,988.296 L2146.25,992.41 L2148.66,995.595 L2152.32,999.068 L2152.87,999.709 L2159.38,1008.49 L2163.08,1017.74 L2166.89,1022.91 L2174.21,1030.94 L2180.24,1034.88 L2189.88,1040.05 L2205.56,1047.17 L2212.66,1050.85 L2218.14,1054.78 L2221.1,1059.74 L2228.83,1072.37 L2231,1073.41 L2234.44,1073.47 L2239.85,1073.94 L2241.89,1074.34 L2253.7,1077.08 L2254.73,1077.3 L2261,1079.18 L2262.05,1079.78 L2267.22,1082.17 L2271.73,1085.15 L2272.78,1086.15 L2278,1091.88 L2282.8,1097.94 L2285.4,1100.88 L2285.73,1101.34 L2288.17,1106.56 L2288.58,1110.87 L2286.29,1113.12 L2293.66,1116.47 L2299.76,1126.65 L2305.3,1131.87 L2309.05,1133.46 L2311.35,1132.62 L2312.95,1130.14 L2313.95,1125.12 L2317.85,1113.26 L2321.73,1111.52 L2328.76,1110.57 L2344.93,1109.95 L2347.98,1112.67 L2350.92,1117.13 L2357.09,1127.35 L2359.77,1128.55 L2362.73,1127.49 L2368.09,1123.15 L2370.77,1122.16 L2373.81,1123.68 L2382.05,1127.2 L2385.93,1127.35 L2390.09,1125.07 L2396.29,1122.24 L2401.18,1121.96 L2408.58,1123.46 L2415.16,1125.76 L2417.92,1126.73 L2445.04,1139.25 L2456.08,1142.11 L2464.74,1142.42 L2471.77,1141.15 L2476.79,1139.83 L2486.69,1137.2 L2502.34,1138.46 L2509.96,1140.2 L2531.48,1145.6 L2545,1148.98 L2552.4,1154.14 L2560.81,1160.51 L2566.69,1159.51 L2586.95,1157.26 L2596.4,1158.56 L2614.45,1163.56 L2620.19,1164.8 L2626.68,1166.15 L2634.34,1166.59 L2638.9,1166.1 L2645.17,1165.42 L2651.04,1165.55 L2652.86,1166.86 L2658.88,1178.03 L2663.66,1180.72 L2668.35,1181.19 L2673.67,1180.5 L2691.99,1175.37 L2699.59,1174.11 L2704.96,1175 L2716.33,1178.4 L2738.46,1186.43 L2745.12,1189.73 L2748.58,1193.27 L2750.27,1197.67 L2754.17,1231.49 L2752.81,1241.71 L2753.1,1244.49 L2753.31,1246.35 L2755,1247.19 L2775.75,1249.89 L2783.97,1250.8 L2789.56,1249.54 L2794.64,1249.31 L2801.78,1252.34 L2807.24,1254.38 L2811.82,1254.47 L2831.62,1253.45 L2832.94,1258.03 L2834.73,1267.08 L2836.2,1271.01 L2838.15,1272.54 L2841.57,1273.47 L2847.53,1273.36 L2865.87,1273.33 L2874.98,1275.5 L2882.06,1278.67 L2882.46,1279.12 L2885.98,1283.35 L2890.85,1291.47 L2894.9,1298.75 L2900.73,1305.52 L2906.18,1312.97 L2910.04,1319.01 L2915.63,1323.68 L2926.65,1331.29 L2934.84,1336.2 L2940.69,1338.01 L2960.32,1347.2 L2963.17,1347.7 L2966.35,1349.93 L2968.43,1350.91 L2983,1352.94 L2986.46,1354.64 L2992.62,1361.59 L2994.02,1363.4 L2998.8,1367.07 L2999.89,1367.72 L3000.77,1368.22 L3012.84,1371.32 L3015.76,1371.56 L3017.66,1372.18 L3027.83,1375.46 L3031.16,1376.74 L3037.88,1377.29 L3042.18,1377.49 L3048.16,1381.12 L3060.54,1389.68 L3066.94,1391.49 L3077.63,1393.48 L3080.37,1393.09 L3084.88,1392.51 L3095.68,1393.68 L3097.72,1394.44 L3101.77,1397.18 L3117.4,1400.78 L3125.77,1407.2 L3126.88,1418.92 L3128.75,1434.05 L3134.77,1445.38 L3146.58,1452.28 L3167.42,1457.14 L3180.98,1461.81 L3196.49,1468.31 L3210.95,1476.23 L3224.12,1484.61 L3262.05,1545.16 L3262.77,1549.84 L3266.63,1570.81 L3269.15,1583.16 L3269.72,1586.28 L3272.04,1598.53 L3274.16,1608.02 L3270.64,1606.65 L3269.87,1604.37 L3265.68,1602.73 L3262.46,1602.25 L3259.88,1600.37 L3258.54,1596.54 L3258.37,1590.37 L3258.45,1588.55 L3254.2,1584.48 L3249.86,1580.48 L3245.96,1575.53 L3241.65,1573.03 L3237.51,1572.36 L3235.38,1572.36 L3231.79,1567.3 L3228.66,1563.54 L3222.7,1560.13 L3214.02,1557.41 L3197.72,1551.55 L3190.38,1548.74 L3189.5,1550.46 L3188.31,1554.03 L3187.44,1558.52 L3186.72,1563.4 L3185.69,1571.28 L3185.38,1573.6 L3185.21,1576.37 L3185.71,1583.97 L3185.97,1585.12 L3182.16,1588.84 L3179.97,1591.72 L3167.86,1597.69 L3164.15,1598.62 L3158.74,1598.02 L3155.08,1596.25 L3151.38,1592.14 L3148.6,1588.53 L3144.59,1589.64 L3142.86,1590.17 L3139.17,1586.83 L3134.18,1582.4 L3133.28,1581.92 L3127.58,1576.9 L3124.5,1574.09 L3120.51,1573.34 L3113.58,1573.05 L3108.59,1571.32 L3105.21,1569.15 L3103.19,1566 L3103.92,1559.8 L3103.15,1558.25 L3085.71,1551.72 L3081.22,1549.09 L3077.89,1546.73 L3074.12,1545.91 L3073.51,1545.91 L3063.78,1543.19 L3055.72,1539.82 L3046.78,1536.57 L3038.32,1534.45 L3026.95,1531.46 L3025.05,1530.11 L3023.47,1526.09 L3023.29,1525.42 L3016.89,1521.47 L3013.89,1520.45 L3009.51,1519.43 L3003.31,1516.93 L2996.65,1516.18 L2990.6,1512.91 L2986.81,1510.91 L2979.58,1507.66 L2973.47,1506.31 L2971.65,1506.31 L2966.35,1504.61 L2960.34,1502.07 L2955.2,1500.67 L2949.87,1502.29 L2947.97,1502.4 L2944,1498.2 L2938.85,1493.71 L2932.15,1483.76 L2928.97,1481.19 L2924.98,1480.1 L2918.63,1485.99 L2916.57,1487.4 L2913.83,1487.09 L2910.81,1485.81 L2904.69,1483.69 L2898.23,1481.94 L2889.86,1474.11 L2883.81,1472.54 L2876.69,1467.98 L2870.21,1467.1 L2863.57,1461.32 L2860.92,1458.82 L2856.62,1459.02 L2853.75,1459.47 L2852.09,1456.26 L2850.97,1453.27 L2848.43,1449.87 L2840.65,1448.89 L2840.01,1448.96 L2836.88,1448.18 L2831.45,1444.23 L2827.26,1440.89 L2819.27,1437.24 L2815.21,1436.42 L2812.78,1436.2 L2806.97,1429.47 L2804.78,1417.7 L2803.97,1413.37 L2802.92,1412.02 L2796.68,1412.13 L2786.33,1411.82 L2783.57,1412.04 L2780.73,1413.97 L2780.02,1414.97 L2778.53,1416.53 L2774.17,1415.67 L2771.02,1412.73 L2768.06,1413.19 L2763.84,1413.05 L2758.68,1411 L2747.44,1410.1 L2735.9,1410.94 L2723.1,1411.02 L2721.31,1410.83 L2716.4,1408.55 L2712.32,1406.93 L2708.2,1406.16 L2707.11,1406.05 L2706.41,1406.05 L2696.5,1409.26 L2686.36,1411.11 L2679.83,1413.79 L2678.25,1414.56 L2669.75,1417.39 L2666.46,1417.17 L2661.01,1413.61 L2660.13,1412.9 L2656.47,1411.64 L2639.95,1408.86 L2628.23,1406.51 L2618.24,1400.83 L2607.22,1392.89 L2601.22,1388.62 L2582.77,1385.5 L2559.81,1389.24 L2546.59,1387.36 L2536.34,1385.83 L2531.72,1385.06 L2530.38,1384.84 L2527.69,1384.39 L2524.58,1383.91 L2521.73,1383.84 L2520.85,1383.88 L2520.22,1383.93 L2517.1,1384 L2513.34,1383.82 L2508.41,1383.86 L2505.84,1384.3 L2502.25,1384.99 L2498.81,1385.43 L2495.52,1385.59 L2491.16,1385.99 L2489.78,1386.27 L2488.36,1386.67 L2482.66,1388.88 L2480.95,1389.9 L2477.69,1393.97 L2477.25,1394.61 L2474.82,1387.07 L2471.66,1376.81 L2460.79,1371.68 L2457.6,1370.44 L2455.45,1367.56 L2456.33,1360.42 L2458.1,1352.32 L2457.9,1347.01 L2457.03,1345.86 L2450.61,1348.1 L2446.58,1349.27 L2444.54,1348.65 L2444.14,1341.88 L2443.27,1338.59 L2441.32,1336 L2437.7,1337.44 L2432.2,1341.2 L2428.15,1342.43 L2425.15,1342.04 L2423.24,1340.13 L2422.1,1335.05 L2421.82,1331.29 L2417.74,1325.18 L2405.19,1325.54 L2399.29,1325.69 L2397.56,1324.69 L2394.96,1314.52 L2394.5,1309.28 L2388.51,1299.17 L2386.19,1295.54 L2385.45,1292.38 L2393.01,1282.38 L2394.75,1279.37 L2395.28,1276.28 L2393.97,1272.16 L2390.22,1270.17 L2383.93,1269.66 L2373.09,1273.2 L2366.95,1275.22 L2360.69,1277.23 L2352.04,1279.13 L2350.02,1279.53 L2346.45,1281.25 L2343.95,1284.35 L2347.15,1294.94 L2347.8,1298.15 L2347.19,1302.89 L2345.5,1306.82 L2343.09,1309.08 L2340.79,1309.43 L2336.5,1306.67 L2327.56,1298.09 L2318.18,1293.93 L2306.26,1291.27 L2286.5,1285.48 L2282.32,1284.55 L2281.02,1285.39 L2273.33,1285.15 L2264.35,1283.86 L2260.89,1285.39 L2258.56,1287.71 L2256.81,1298.71 L2256.35,1302.09 L2254.71,1304.35 L2250.96,1306 L2245.62,1306.54 L2242.22,1305.92 L2234.9,1299.35 L2231.99,1296.25 L2223.9,1296.25 L2207.78,1297.18 L2202.8,1297.62 L2201.71,1297.98 L2191.37,1310.91 L2188.96,1313.55 L2181.49,1315.4 L2173.47,1316.73 L2167.64,1319.56 L2159.47,1326.62 L2157.19,1328.61 L2155.19,1328.72 L2152.41,1326.93 L2148.12,1322.5 L2143.58,1316.07 L2140.73,1315.12 L2132.84,1316.73 L2124.5,1319.94 L2120.97,1321.51 L2110.76,1320.4 L2095.4,1315.52 L2086.99,1313.97 L2076.1,1312.66 L2069.83,1310.94 L2062.29,1308.04 L2055.85,1306.58 L2040.25,1307.53 L2028.14,1302.02 L2023.71,1299.48 L2016.06,1298.37 L2013.46,1298.11 L2005.09,1297.25 L1991.46,1295.85 L1986.16,1295.08 L1981.07,1292.16 L1973.6,1283.66 L1972.27,1279.09 L1966.04,1257.72 L1965.65,1258.74 L1959.97,1261.32 L1946.59,1269.4 L1945.65,1269.97 L1944.77,1270.26 L1934.8,1271.9 L1930.35,1273.47 L1926.04,1273.84 L1921,1272.78 L1917.29,1272.8 L1911.47,1272.83 L1907.17,1271.52 L1906.08,1269.69 L1905.59,1265.84 L1905.31,1257.98 L1902.33,1253.3 L1894.38,1243.08 L1891.31,1241.66 L1888.33,1241.84 L1886.88,1243.47 L1885.35,1248.39 L1883.73,1255.18 L1881.19,1258.71 L1877.99,1260.46 L1873.58,1260.68 L1868.39,1259.75 L1866.24,1257.52 L1862.52,1253.67 L1855.59,1252.17 L1852.2,1253.1 L1847.99,1254.98 L1844.35,1253.69 L1838.4,1251.9 L1834.5,1251.04 L1825.98,1249.17 L1811.75,1241.64 L1805.68,1236.68 L1801.98,1235.47 L1799.86,1236.57 L1793.55,1241.77 L1789.32,1241.73 L1784.45,1239.54 L1777.44,1235.07 L1771.5,1232.24 L1764.1,1230.34 L1757.81,1230.27 L1751.06,1229.65 L1748.02,1227.95 L1742.71,1224.76 L1740.08,1225.54 L1738.4,1227.77 L1730.12,1243.32 L1727.82,1244.34 L1724.62,1243.47 L1719.8,1242.79 L1711.36,1241.93 L1705.38,1239.29 L1698.48,1235.58 L1696.44,1232.61 L1695.63,1228.85 L1696.86,1225.76 L1703.28,1214.23 L1702.6,1211 L1700.06,1207.82 L1695.48,1205.03 L1688.51,1203.64 L1680.42,1203.51 L1675.38,1204.97 L1668.83,1208.48 L1667.39,1212.75 L1665.24,1226.18 L1665.2,1235.47 L1664.8,1239.45 L1663.14,1241.82 L1660.07,1242.74 L1649.97,1244.45 L1648.37,1246.99 L1644.67,1252.74 L1641.69,1252.48 L1639.01,1252.79 L1636.74,1254.8 L1634.72,1258.71 L1631.3,1269.53 L1628.98,1270.26 L1625.39,1269.62 L1622.27,1267.54 L1621.22,1265.06 L1621.31,1261.26 L1622.1,1250.88 L1621.2,1244.36 L1619.6,1242.26 L1619.01,1241.48 L1616.99,1237.92 L1614.76,1232.28 L1612.24,1229.19 L1608.71,1227.37 L1599.64,1223.55 L1597.03,1220.05 L1594.93,1217.93 L1591.62,1217.24 L1588.12,1217.8 L1585.07,1220.27 L1577.1,1228.9 L1574.18,1234.03 L1569.08,1244.03 L1566.01,1250.02 L1563.36,1251.22 L1561.04,1250.57 L1559.59,1248.45 L1557.86,1242.72 L1557.66,1236.57 L1557.09,1229.39 L1554.94,1227.62 L1550.34,1226.4 L1548.13,1224.67 L1546.71,1221.67 L1544.03,1216.29 L1540.79,1214.08 L1535.95,1212.62 L1530.34,1212.69 L1528.15,1214.26 L1526.4,1217.75 L1523.44,1221.53 L1519.52,1224.12 L1514.87,1224.83 L1510.47,1224.32 L1498.11,1219.23 L1495.88,1216.27 L1494.03,1210.58 L1494.23,1206.76 L1495.88,1202.18 L1498.13,1194.37 L1497.04,1191.45 L1494.78,1189.86 L1490.97,1188.86 L1486.89,1189.86 L1477.34,1192.23 L1473.64,1190.92 L1470.28,1187.63 L1468.47,1183.82 L1468.47,1179.26 L1467.98,1171.57 L1466.23,1169.02 L1463.16,1167.08 L1456.31,1163.34 L1451.66,1159.2 L1450.78,1156.73 L1451.84,1154.34 L1459,1141.46 L1458.69,1138.3 L1456.5,1134.3 L1453.44,1131.49 L1449.25,1129.99 L1443.75,1129.92 L1433.26,1129.08 L1427.8,1129.19 L1416.12,1130.89 L1407.18,1130.32 L1392.22,1125.98 L1389.09,1125.05 L1380.34,1123.22 L1373.62,1123.39 L1371.73,1124.96 L1369.74,1128.79 L1366.36,1136.4 L1362.33,1150.31 L1358.87,1156.88 L1353.68,1160.62 L1342.59,1164.45 L1341.21,1164.93 L1337.29,1163.72 L1331.64,1160.22 L1330.17,1158.58 L1329.71,1157.19 L1330.54,1153.17 L1334.24,1137.7 L1333.67,1132.55 L1331.97,1130.71 L1326.36,1126.98 L1316.45,1121.49 L1311.81,1116.78 L1307.65,1114.55 L1300.2,1114.08 L1297.72,1111.74 L1295.95,1107.98 L1294.08,1105.19 L1286.9,1096.65 L1287.23,1094.24 L1288.56,1087.41 L1287.05,1084.29 L1283.5,1078.45 L1283.7,1075.26 L1285.08,1073.3 L1287.95,1072.1 L1294.57,1068.23 L1299.23,1063.54 L1303.9,1055.87 L1304.25,1054.23 L1303.83,1050.58 L1302.01,1047.75 L1297.94,1044.25 L1291.32,1038.61 L1286.04,1032.58 L1280.87,1030.76 L1277.96,1031.82 L1276.47,1033.77 L1274.87,1035.08 L1270.68,1035.83 L1266.08,1035.14 L1253.92,1029.97 L1251.6,1028.04 L1245.57,1024.04 L1241.59,1023.97 L1223.42,1025.94 L1221.56,1025.7 L1210.12,1023.02 L1209.18,1022.56 L1200.86,1016.89 L1197.48,1011.63 L1197.59,1010.06 L1197.74,1007.85 L1198.47,998.294 L1197.07,993.118 L1196.74,987.588 L1194.74,977.547 L1193.67,974.34 L1191.22,969.938 L1188.39,968.368 L1184.86,967.97 L1180.02,968.877 L1174.19,972.371 L1170.36,974.185 L1166.59,973.986 L1164.75,972.703 L1163.76,969.894 L1162.71,964.497 L1161.61,962.617 L1157.82,961.29 L1151.71,961.202 L1145.84,959.587 L1142.64,956.756 L1139.9,952.266 L1135.83,945.299 L1134.8,944.193 L1128.27,938.752 L1124.28,937.16 L1122.18,937.204 L1121.3,937.115 L1116.87,935.39 L1108.55,931.807 L1106.77,931.166 L1096.54,926.587 L1093.98,922.761 L1089.9,918.116 L1087.05,916.767 L1082.69,917.01 L1071.19,918.669 L1062.03,920.394 L1056.16,922.562 L1048.93,925.039 L1040.43,927.627 L1032.59,929.728 L1028.37,930.823 L1024.66,931.918 L1021.46,932.05 L1019.44,931.962 L1018.7,931.94 L1013.79,932.028 L1001.1,931.741 L994.112,931.431 L985.217,930.17 L975.073,927.317 L970.603,924.132 L963.614,918.713 L948.057,915.86 L915.368,916.9 L862.06,922.429 L822.622,926.609 L816.466,933.112 L812.04,936.961 L801.567,943.043 L787.939,945.631 L777.794,949.811 L767.014,955.893 L762.26,958.791 L756.87,962.949 L751.787,966.798 L746.09,970.956 L741.665,976.397 L735.946,981.838 L732.791,984.403 L728.343,986.969 L725.802,987.611 L717.87,986.35 L714.693,985.067 L708.975,984.138 L704.527,983.187 L688.335,982.258 L681.039,981.948 L675.014,980.997 L669.602,978.144 L665.79,974.627 L660.707,971.442 L658.494,967.926 L645.786,963.812 L638.797,961.268 L632.443,958.083 L607.969,946.958 L590.244,940.787 L573.461,934.926 L554.728,932.095 L549.951,932.426 L542.349,934.041 L537.594,934.992 L529.969,935.965 L519.19,939.836 L510.316,942.07 L507.139,943.684 L502.691,946.25 L499.208,948.484 L495.724,951.691 L491.605,958.083 L487.179,963.215 L478.612,970.889 L475.128,974.738 L472.609,976.972 L470.067,978.586 L467.219,979.869 L458.652,979.56 L454.84,978.94 L450.721,979.891 L446.273,980.865 L442.154,982.789 L439.612,985.664 L437.728,991.747 L436.457,997.497 L435.844,1001.97 L435.537,1008.05 L435.866,1016.34 L433.653,1022.42 L430.498,1028.82 L423.202,1035.85 L419.104,1044.5 L417.198,1049.61 L414.985,1056.33 L414.372,1064.96 L414.065,1072.94 L414.087,1077.74 L414.416,1084.11 L414.81,1093.16 L414.781,1093.14 L414.348,1092.81 L409.968,1089.46 L404.118,1088.56 L400.174,1089.4 L388.934,1089.2 L377.3,1086.92 L368.145,1084.64 L368.142,1084.64 L351.49,1079.44 L338.826,1072.9 L327.586,1070.82 L313.651,1068.12 L305.961,1067.72 L295.159,1069.62 L275.812,1072.39 L250.66,1074.53 L246.283,1074.11 L245.697,1073.91 L242.166,1072.67 L241.165,1069.24 L240.476,1062.18 L239.42,1050.38 L237.733,1042.22 L235.848,1031.98 L235.236,1027.87 L233.81,1017.77 L233.71,1008.44 L233.701,1002.25 L232.891,993.162 L230.468,981.47 L228.963,973.933 L227.458,964.103 L227.458,951.121 L227.381,943.169 L227.369,933.93 L226.515,927.45 L226.123,916.539 L226.121,916.496 L226.12,916.479 L224.953,910.865 L222.778,900.381 L222.711,899.512 L222.33,893.875 L223.36,885.913 L226.057,870.929 L226.455,868.773 L226.455,865.208 L225.124,863.545 L220.796,858.089 L217.685,853.267 L210.411,840.638 L207.937,835.979 L205.226,830.837 L203.673,828.893 L200.398,824.757 L195.023,821.22 L191.686,817.042 L191.465,816.842 L186.858,812.637 L186.397,811.551 L185.668,809.733 L185.252,808.915 L184.557,807.395 L171.652,796.757 L169.965,794.036 L169.694,791.777 L168.952,785.276 L169.117,782.387 L169.329,779.394 L169.351,773.445 L171.353,768.278 L171.627,767.59 L173.298,758.383 L171.627,749.798 L167.448,735.581 L166.7,734.205 L164.685,730.316 L154.102,720.186 L128.029,688.868 L122.836,683.007 L121.926,681.547 L120.81,679.686 L120.81,679.684 L120.809,679.662 L153.773,676.549 L184.645,678.96 L202.589,682.001 L221.234,686.789 L239.902,693.358 L257.583,701.541 L261.177,703.377 L261.746,703.731 L266.654,707.623 L269.853,711.317 L271.803,713.949 L274.016,716.548 L276.711,719.279 L278.507,720.142 L284.467,722.066 L291.281,722.752 L297.306,724.211 L309.883,725.738 L321.692,727.507 L322.437,727.684 L325.724,730.581 L327.915,733.611 L330.916,738.013 L332.669,740.556 L334.816,741.618 L338.475,742.281 L347.02,744.67 L351.884,746.351 L359.816,747.214 L363.343,747.966 L370.716,751.571 L379.929,754.711 L381.77,755.64 L385.209,759.422 L389.854,762.607 L394.85,763.89 L404.425,765.77 L410.976,766.964 L412.488,767.075 L423.267,768.424 L425.414,768.844 L437.071,772.051 L438.385,772.494 L449.318,775.944 L455.234,775.988 L468.928,770.393 L474.734,766.212 L479.576,762.828 L485.755,762.32 L488.187,763.381 L493.84,770.083 L497.389,775.856 L499.602,779.461 L503.217,782.093 L510.163,782.867 L517.897,781.385 L528.019,776.077 L537.287,770.702 L543.707,766.854 L548.023,764.023 L552.997,762.651 L559.154,762.939 L569.429,767.009 L573.943,768.314 L578.588,768.623 L582.356,767.163 L584.613,764.907 L586.3,762.475 L595.02,759.82 L606.173,758.162 L612.11,758.339 L612.943,758.626 L615.441,759.467 L620.721,764.421 L622.386,767.407 L623.219,778.465 L623.065,787.224 L622.452,794.567 L622.868,797.287 L622.978,798.106 L625.519,801.49 L630.011,803.281 L642.631,803.082 L653.279,802.308 L661.408,802.839 L662.679,803.237 L665.746,805.935 L671.048,809.828 L674.795,814.406 L686.583,837.143 L689.76,841.788 L694.821,846.101 L699.269,847.716 L703.519,847.561 L708.033,845.194 L713.203,841.213 L717.925,839.587 L724.64,839.51 L737.94,844.088 L742.738,845.194 L750.516,846.035 L760.069,847.295 L761.164,847.317 L777.948,842.805 L794.906,838.227 L801.107,836.369 L805.16,834.688 L813.88,832.344 L818.196,830.884 L827.859,823.983 L833.533,821.462 L842.692,822.214 L850.141,820.599 L863.485,815.689 L868.305,814.362 L870.2,814.594 L875.809,814.307 L885.285,815.866 L892.954,816.065 L904.478,816.397 L909.211,815.49 L924.263,809.297 L932.633,807.672 L939.14,805.493 L947.816,800.096 L950.993,798.592 L966.462,792.731 L969.902,790.453 L972.159,787.423 L975.16,782.69 L978.03,779.992 L981.185,778.996 L987.255,781.938 L990.563,783.442 L993.367,783.331 L1011.64,774.02 L1016.18,773.113 L1025.16,775.457 L1037.58,776.829 L1045.95,777.913 L1054.98,780.434 L1062.93,782.977 L1067.34,784.327 L1072.55,790.475 L1074.33,793.859 L1074.83,798.128 L1074.37,802.684 L1075.53,805.648 L1077.83,807.439 L1087.8,807.882 L1095.82,809.939 L1102.17,810.868 L1108.72,810.293 L1115.32,809.452 L1132.87,811.31 L1137.84,811.421 L1142.44,808.988 L1146.32,806.378 L1148.05,805.714 L1166.46,801.202 L1179.03,802.308 L1185.69,801.822 L1201.29,799.875 L1206.6,799.101 L1210.61,797.044 L1213.13,793.66 L1215.86,785.344 L1219.24,773.467 L1221.67,768.513 L1226.16,763.956 L1232.56,759.82 L1240.27,756.149 L1245.68,755.087 L1249.89,755.839 L1265.82,769.751 L1269.26,772.162 L1272.66,773.202 L1276.8,772.45 L1283.61,756.613 L1285.43,754.49 L1292.77,754.291 L1293.62,754.357 L1296.54,755.795 L1297.41,756.127 L1301.88,762.674 L1304.64,767.429 L1309.05,771.078 L1315.51,776.409 L1327.04,782.911 L1330.96,785.41 L1336.06,792.952 L1337.97,797.398 L1346.03,819.493 L1349.19,824.271 L1354.73,830.397 L1358.92,833.759 L1364.35,835.639 L1373.05,836.48 L1380.08,835.551 L1385.62,833.693 L1391.19,829.623 L1403.02,815.601 L1413.82,800.848 L1422.67,787.954 L1426.95,779.748 L1429.71,771.233 L1430.61,767.473 L1432.09,765.682 L1434.31,765.527 L1445.9,769.22 L1452.56,776.32 L1456.83,780.854 L1460.42,782.8 L1463.25,783 L1465.62,781.628 L1468.44,764.133 L1469.32,759.644 L1471.51,756.658 L1474.86,754.756 L1479.68,754.269 L1484.09,755.286 L1491.25,763.514 L1496.23,768.645 L1500.61,771.322 L1505.23,772.051 L1516.25,773.157 L1528.15,772.848 L1535.2,771.675 L1540.79,768.756 L1544.98,763.868 L1547.41,760.926 L1556.37,757.166 L1566.64,754.933 L1573.7,752.898 L1578.61,749.536 L1581.7,747.324 L1592.91,746.882 L1597.3,746.086 L1602.05,743.078 L1606.87,737.681 L1610.31,733.523 L1616.73,728.679 L1627.77,720.385 L1633.93,716.36 L1645.08,712.489 L1649.73,711.936 L1656.48,712.799 L1674.33,718.948 L1678.78,722.951 L1682.13,726.578 L1688.33,730.05 L1701.72,733.457 L1708.53,734.717 L1713.64,734.164 L1726.87,724.167 L1730.07,722.243 L1737.63,721.336 L1745.06,723.57 L1750.76,726.136 L1754.63,730.426 L1757.24,733.656 L1760.29,735.447 L1772.75,731.753 L1777.79,730.139 L1784.85,729.276 L1787.76,727.994 L1790.52,724.897 L1791.27,717.665 L1791.71,712.91 L1794.84,707.557 L1797.84,704.173 L1801.21,702.382 L1805.88,701.762 L1812.06,703.112 L1816.95,705.323 L1821.46,708.973 L1823.85,712.29 L1825.6,718.151 L1825.75,723.437 L1824.68,726.932 L1823.72,730.139 L1822.23,734.098 L1821.35,742.591 L1822.25,748.474 L1824.26,753.959 L1826.01,756.873 L1827.13,758.803 L1829.17,760.617 L1833.47,761.435 L1834.39,761.612 L1854.54,759.378 L1858.22,759.113 L1865.61,762.121 L1870.93,765.505 L1873.71,768.424 L1874.96,771.83 L1869.79,781.805 L1868.81,784.327 L1869.68,787.224 L1873.76,790.608"/>
  </g>
  <g font-weight="400" font-family="MS Shell Dlg 2" stroke-opacity="1" stroke-linejoin="bevel" stroke-width="1" transform="matrix(0.999751,0,0,0.999751,71.5949,113.709)" font-style="normal" font-size="33.3333" fill="none" stroke="#000000" stroke-linecap="square"/>
  <g font-weight="400" font-family="MS Shell Dlg 2" stroke-opacity="1" stroke-linejoin="bevel" stroke-width="1" transform="matrix(11.8081,0,0,11.8081,71.5949,113.709)" font-style="normal" font-size="33.3333" fill="none" stroke="#000000" stroke-linecap="square"/>
  <g font-weight="400" font-family="MS Shell Dlg 2" stroke-opacity="1" stroke-linejoin="bevel" stroke-width="1" transform="matrix(11.8081,0,0,11.8081,71.5949,113.709)" font-style="normal" font-size="33.3333" fill="none" stroke="#000000" stroke-linecap="square"/>
  <g font-weight="400" font-family="MS Shell Dlg 2" stroke-opacity="1" stroke-linejoin="bevel" stroke-width="1" transform="matrix(11.8081,0,0,11.8081,71.5949,113.709)" font-style="normal" font-size="33.3333" fill="none" stroke="#000000" stroke-linecap="square"/>
  <g font-weight="400" font-family="MS Shell Dlg 2" stroke-opacity="1" stroke-linejoin="bevel" stroke-width="1" transform="matrix(1,0,0,1,0,0)" font-style="normal" font-size="33.3333" fill="none" stroke="#000000" stroke-linecap="square"/>
  <g font-weight="400" font-family="MS Shell Dlg 2" stroke-opacity="1" stroke-linejoin="bevel" stroke-width="1" transform="matrix(11.8081,0,0,11.8081,71.5949,113.709)" font-style="normal" font-size="33.3333" fill="none" stroke="#000000" stroke-linecap="square"/>
  <g font-weight="400" font-family="MS Shell Dlg 2" stroke-opacity="1" stroke-linejoin="bevel" stroke-width="1" transform="matrix(11.8081,0,0,11.8081,71.5949,113.709)" font-style="normal" font-size="33.3333" fill="none" stroke="#000000" stroke-linecap="square"/>
  <g font-weight="400" font-family="MS Shell Dlg 2" stroke-opacity="1" stroke-linejoin="bevel" stroke-width="1" transform="matrix(11.8081,0,0,11.8081,71.5949,113.709)" font-style="normal" font-size="33.3333" fill="none" stroke="#000000" stroke-linecap="square"/>
  <g font-weight="400" font-family="MS Shell Dlg 2" stroke-opacity="1" stroke-linejoin="bevel" stroke-width="1" transform="matrix(11.8081,0,0,11.8081,71.5949,113.709)" font-style="normal" font-size="33.3333" fill="none" stroke="#000000" stroke-linecap="square"/>
  <g font-weight="400" font-family="MS Shell Dlg 2" stroke-opacity="1" stroke-linejoin="bevel" stroke-width="1" transform="matrix(1,0,0,1,0,0)" font-style="normal" font-size="33.3333" fill="none" stroke="#000000" stroke-linecap="square"/>
 </g>
 <metadata>
  <rdf:RDF xmlns:dc="http://purl.org/dc/elements/1.1/" xmlns:rdf="http://www.w3.org/1999/02/22-rdf-syntax-ns#" xmlns:rdfs="http://www.w3.org/2000/01/rdf-schema#">
   <rdf:Description dc:title="" dc:description="" dc:identifier="" dc:format="image/svg+xml" dc:date="2024-07-18T15:02:58">
    <dc:creator>
     <rdf:Bag>
      <rdf:li>Lenovo</rdf:li>
     </rdf:Bag>
    </dc:creator>
    <dc:publisher>
     <rdf:Bag>
      <rdf:li>QGIS 3.28.0-Firenze</rdf:li>
     </rdf:Bag>
    </dc:publisher>
    <dc:subject>
     <rdf:Bag/>
    </dc:subject>
   </rdf:Description>
   <cc:Work rdf:about="">
    <dc:format>image/svg+xml</dc:format>
    <dc:title></dc:title>
    <dc:date>2024-07-18T15:02:58</dc:date>
    <dc:identifier></dc:identifier>
    <dc:description></dc:description>
    <dc:creator>
     <cc:Agent>
      <dc:title>Lenovo</dc:title>
     </cc:Agent>
    </dc:creator>
    <dc:publisher>
     <cc:Agent>
      <dc:title>QGIS 3.28.0-Firenze</dc:title>
     </cc:Agent>
    </dc:publisher>
   </cc:Work>
  </rdf:RDF>
 </metadata>
</svg>
